<svg width="40" height="40" viewBox="0 0 40 40" fill="none" xmlns="http://www.w3.org/2000/svg">
<g clip-path="url(#clip0_1409_182)">
<path d="M10.2 0.400024C7.49739 0.400024 5.30005 2.59737 5.30005 5.30002V34.7C5.30005 37.4027 7.49739 39.6 10.2 39.6H29.8C32.5027 39.6 34.7001 37.4027 34.7001 34.7V5.30002C34.7001 2.59737 32.5027 0.400024 29.8 0.400024H10.2ZM12.65 5.30002H27.35C28.7052 5.30002 29.8 6.39487 29.8 7.75002V10.2C29.8 11.5552 28.7052 12.65 27.35 12.65H12.65C11.2949 12.65 10.2 11.5552 10.2 10.2V7.75002C10.2 6.39487 11.2949 5.30002 12.65 5.30002ZM15.1 17.55C15.1 19.436 13.0584 20.6148 11.425 19.6718C10.667 19.2341 10.2 18.4253 10.2 17.55C10.2 15.664 12.2417 14.4853 13.875 15.4283C14.6331 15.8659 15.1 16.6747 15.1 17.55ZM12.65 27.35C10.764 27.3501 9.5853 25.3085 10.5282 23.6751C10.9659 22.917 11.7747 22.45 12.65 22.45C14.5361 22.45 15.7148 24.4917 14.7718 26.125C14.3341 26.8831 13.5254 27.3501 12.65 27.35ZM10.2 32.25C10.2 30.8949 11.2949 29.8 12.65 29.8H20C21.3552 29.8 22.45 30.8949 22.45 32.25C22.45 33.6052 21.3552 34.7 20 34.7H12.65C11.2949 34.7 10.2 33.6052 10.2 32.25ZM20 20C18.114 20 16.9353 17.9584 17.8783 16.325C18.316 15.567 19.1247 15.1 20 15.1C21.8861 15.0999 23.0648 17.1416 22.1219 18.7749C21.6842 19.533 20.8754 20 20 20ZM22.45 24.9C22.45 26.786 20.4084 27.9648 18.775 27.0218C18.017 26.5841 17.55 25.7753 17.55 24.9C17.55 23.014 19.5917 21.8353 21.225 22.7783C21.9831 23.2159 22.45 24.0247 22.45 24.9ZM27.35 20C25.464 20 24.2853 17.9584 25.2283 16.325C25.666 15.567 26.4747 15.1 27.35 15.1C29.2361 15.0999 30.4148 17.1416 29.4719 18.7749C29.0342 19.533 28.2254 20 27.35 20ZM29.8 24.9C29.8 26.786 27.7584 27.9648 26.125 27.0218C25.367 26.5841 24.9 25.7753 24.9 24.9C24.9 23.014 26.9417 21.8353 28.5751 22.7783C29.3331 23.2159 29.8 24.0247 29.8 24.9ZM27.35 34.7C25.464 34.7 24.2853 32.6584 25.2283 31.025C25.666 30.267 26.4747 29.8 27.35 29.8C29.2361 29.8001 30.4148 31.8418 29.4718 33.4751C29.0341 34.2331 28.2253 34.7 27.35 34.7Z" fill="#008236"/>
</g>
<defs>
<clipPath id="clip0_1409_182">
<rect width="40" height="40" fill="white"/>
</clipPath>
</defs>
</svg>
