<svg width="37" height="40" viewBox="0 0 37 40" fill="none" xmlns="http://www.w3.org/2000/svg">
<path d="M18.4761 0C18.8302 0 19.1843 0.0769844 19.5077 0.22325L34.0036 6.37423C35.6973 7.09018 36.9598 8.76072 36.9521 10.7777C36.9136 18.4145 33.7727 32.387 20.5084 38.7381C19.2228 39.354 17.7293 39.354 16.4437 38.7381C3.17945 32.387 0.0385272 18.4145 3.50592e-05 10.7777C-0.00766807 8.76073 1.25486 7.09018 2.9485 6.37423L17.4522 0.22325C17.7678 0.0769844 18.1219 0 18.4761 0ZM18.4761 5.1425V34.2423C29.0998 29.0998 31.9559 17.7139 32.0252 10.8855L18.4761 5.1425Z" fill="#008236"/>
</svg>
