<svg width="40" height="40" viewBox="0 0 40 40" fill="none" xmlns="http://www.w3.org/2000/svg">
<g clip-path="url(#clip0_1409_161)">
<path d="M10.1998 0.400024C7.49715 0.400024 5.2998 2.59737 5.2998 5.30002V34.7C5.2998 37.4027 7.49715 39.6 10.1998 39.6H29.7998C32.5025 39.6 34.6998 37.4027 34.6998 34.7V12.65H24.8998C23.5446 12.65 22.4498 11.5552 22.4498 10.2V0.400024H10.1998ZM24.8998 0.400024V10.2H34.6998L24.8998 0.400024ZM10.1998 6.52502C10.1998 5.85127 10.7511 5.30002 11.4248 5.30002H16.3248C16.9986 5.30002 17.5498 5.85127 17.5498 6.52502C17.5498 7.19877 16.9986 7.75002 16.3248 7.75002H11.4248C10.7511 7.75002 10.1998 7.19877 10.1998 6.52502ZM10.1998 11.425C10.1998 10.7513 10.7511 10.2 11.4248 10.2H16.3248C16.9986 10.2 17.5498 10.7513 17.5498 11.425C17.5498 12.0988 16.9986 12.65 16.3248 12.65H11.4248C10.7511 12.65 10.1998 12.0988 10.1998 11.425ZM19.9998 16.9375C20.6736 16.9375 21.2248 17.4888 21.2248 18.1625V19.4871C21.8756 19.5789 22.5034 19.7244 23.07 19.8775C23.7207 20.0536 24.1112 20.7197 23.9351 21.3782C23.759 22.0366 23.0929 22.4194 22.4345 22.2433C21.5846 22.0136 20.7501 21.8452 19.9768 21.8375C19.3337 21.8299 18.6446 21.9753 18.17 22.2586C17.7336 22.5189 17.5498 22.8175 17.5498 23.2386C17.5498 23.5219 17.6493 23.7363 18.1087 24.0119C18.637 24.3258 19.3796 24.5555 20.3443 24.8464L20.3826 24.8541C21.2478 25.1144 22.3196 25.436 23.1618 25.9719C24.0882 26.5538 24.8768 27.4802 24.8998 28.8966C24.9228 30.3742 24.1648 31.4461 23.1465 32.0816C22.557 32.4491 21.8909 32.6635 21.2248 32.7783V34.0875C21.2248 34.7613 20.6736 35.3125 19.9998 35.3125C19.3261 35.3125 18.7748 34.7613 18.7748 34.0875V32.7247C17.9173 32.5639 17.1134 32.2883 16.409 32.0433C16.2482 31.9897 16.0875 31.9361 15.9343 31.8825C15.2912 31.6682 14.9467 30.9714 15.1611 30.336C15.3754 29.7005 16.0721 29.3483 16.7076 29.5627C16.899 29.6239 17.0751 29.6852 17.2512 29.7464C18.2925 30.0986 19.1346 30.3896 20.0304 30.4125C20.7271 30.4355 21.4009 30.2824 21.845 30.0067C22.2354 29.7617 22.4498 29.4478 22.4421 28.9349C22.4345 28.5827 22.3043 28.3377 21.8526 28.0467C21.332 27.7175 20.5893 27.4802 19.6323 27.1892L19.5098 27.151C18.6676 26.8983 17.6493 26.5921 16.8454 26.1021C15.9267 25.5508 15.1151 24.655 15.1075 23.2463C15.0998 21.761 15.9343 20.735 16.9296 20.1455C17.5039 19.8086 18.1393 19.5942 18.7748 19.4794V18.1625C18.7748 17.4888 19.3261 16.9375 19.9998 16.9375Z" fill="#008236"/>
</g>
<defs>
<clipPath id="clip0_1409_161">
<rect width="40" height="40" fill="white"/>
</clipPath>
</defs>
</svg>
