<svg width="40" height="40" viewBox="0 0 40 40" fill="none" xmlns="http://www.w3.org/2000/svg">
<g clip-path="url(#clip0_1409_128)">
<path d="M20 0C25.3043 0 30.3914 2.10714 34.1421 5.85786C37.8929 9.60859 40 14.6957 40 20C40 25.3043 37.8929 30.3914 34.1421 34.1421C30.3914 37.8929 25.3043 40 20 40C14.6957 40 9.60859 37.8929 5.85786 34.1421C2.10714 30.3914 0 25.3043 0 20C0 14.6957 2.10714 9.60859 5.85786 5.85786C9.60859 2.10714 14.6957 0 20 0ZM18.125 9.375V20C18.125 20.625 18.4375 21.2109 18.9609 21.5625L26.4609 26.5625C27.3203 27.1406 28.4844 26.9062 29.0625 26.0391C29.6406 25.1719 29.4062 24.0156 28.5391 23.4375L21.875 19V9.375C21.875 8.33594 21.0391 7.5 20 7.5C18.9609 7.5 18.125 8.33594 18.125 9.375Z" fill="#008236"/>
</g>
<defs>
<clipPath id="clip0_1409_128">
<rect width="40" height="40" fill="white"/>
</clipPath>
</defs>
</svg>
