<svg width="30" height="18" viewBox="0 0 30 18" fill="none" xmlns="http://www.w3.org/2000/svg">
<path d="M14.8562 0.973875L10.4094 4.57538C9.66984 5.17256 9.52744 6.2475 10.0879 7.01466C10.6805 7.83234 11.8335 7.99313 12.6282 7.37297L17.1898 3.82659C17.5114 3.57853 17.9708 3.63366 18.2234 3.95522C18.4761 4.27678 18.4163 4.73616 18.0948 4.98881L17.1347 5.733L23.52 11.613V2.94H23.4878L23.3087 2.82516L19.9736 0.689063C19.2708 0.238875 18.4485 0 17.6124 0C16.611 0 15.6371 0.344531 14.8562 0.973875ZM15.9036 6.6885L13.5286 8.53519C12.0816 9.66525 9.98222 9.37125 8.89809 7.88288C7.87828 6.48178 8.13553 4.52484 9.4815 3.43613L13.3035 0.344531C12.7706 0.119437 12.1964 0.00459373 11.613 0.00459373C10.7494 -2.00816e-08 9.90872 0.25725 9.1875 0.735L5.88 2.94V13.23H7.17544L11.3741 17.0612C12.2745 17.8835 13.6664 17.8192 14.4887 16.9188C14.7413 16.6386 14.9113 16.3124 14.9986 15.9725L15.7795 16.6891C16.6753 17.5114 18.0718 17.4517 18.8941 16.5559C19.1008 16.3308 19.2524 16.0689 19.3489 15.7979C20.2401 16.3951 21.4528 16.2711 22.2016 15.4534C23.0239 14.5576 22.9642 13.1611 22.0684 12.3388L15.9036 6.6885ZM0.735 2.94C0.33075 2.94 0 3.27075 0 3.675V13.23C0 14.0431 0.656906 14.7 1.47 14.7H2.94C3.75309 14.7 4.41 14.0431 4.41 13.23V2.94H0.735ZM2.205 11.76C2.7708 11.76 3.12443 12.3725 2.84153 12.8625C2.71023 13.0899 2.46759 13.23 2.205 13.23C1.6392 13.23 1.28557 12.6175 1.56847 12.1275C1.69977 11.9001 1.94241 11.76 2.205 11.76ZM24.99 2.94V13.23C24.99 14.0431 25.6469 14.7 26.46 14.7H27.93C28.7431 14.7 29.4 14.0431 29.4 13.23V3.675C29.4 3.27075 29.0693 2.94 28.665 2.94H24.99ZM26.46 12.495C26.46 11.9292 27.0725 11.5756 27.5625 11.8585C27.7899 11.9898 27.93 12.2324 27.93 12.495C27.93 13.0608 27.3175 13.4144 26.8275 13.1315C26.6001 13.0002 26.46 12.7576 26.46 12.495Z" fill="#008236"/>
</svg>
