<svg width="50" height="50" viewBox="0 0 50 50" fill="none" xmlns="http://www.w3.org/2000/svg">
<path d="M27.2739 48.399C32.1962 42.2389 43.4225 27.3088 43.4225 18.9227C43.4225 8.75182 35.1707 0.5 24.9998 0.5C14.829 0.5 6.57715 8.75182 6.57715 18.9227C6.57715 27.3088 17.8035 42.2389 22.7258 48.399C23.906 49.867 26.0937 49.867 27.2739 48.399ZM24.9998 12.7818C29.7271 12.7818 32.6816 17.8992 30.318 21.9931C29.221 23.8932 27.1939 25.0637 24.9998 25.0636C20.2726 25.0638 17.3181 19.9465 19.6815 15.8525C20.7785 13.9523 22.8058 12.7818 24.9998 12.7818Z" fill="#008236"/>
</svg>
