<svg width="50" height="50" viewBox="0 0 50 50" fill="none" xmlns="http://www.w3.org/2000/svg">
<path d="M5.63477 18.8477L6.55273 20.4492C7.36328 21.8652 8.69141 22.9102 10.2637 23.3594L15.918 24.9707C17.5977 25.4492 18.75 26.9824 18.75 28.7305V32.627C18.75 33.7012 19.3555 34.6777 20.3125 35.1562C21.2695 35.6348 21.875 36.6113 21.875 37.6855V41.4941C21.875 43.0176 23.3301 44.1211 24.7949 43.7012C26.3672 43.252 27.5879 41.9922 27.9883 40.4004L28.2617 39.3066C28.6719 37.6562 29.7461 36.2402 31.2207 35.4004L32.0117 34.9512C33.4766 34.1211 34.375 32.5586 34.375 30.8789V30.0684C34.375 28.8281 33.877 27.6367 32.998 26.7578L32.6172 26.377C31.7383 25.498 30.5469 25 29.3066 25H25.0977C24.0137 25 22.9395 24.7168 21.9922 24.1797L18.623 22.2559C18.2031 22.0117 17.8809 21.6211 17.7246 21.1621C17.4121 20.2246 17.832 19.209 18.7207 18.7695L19.2969 18.4766C19.9414 18.1543 20.6934 18.0957 21.377 18.3301L23.6426 19.082C24.4434 19.3457 25.3223 19.043 25.7812 18.3496C26.2402 17.666 26.1914 16.7578 25.6641 16.123L24.3359 14.5312C23.3594 13.3594 23.3691 11.6504 24.3652 10.498L25.8984 8.71094C26.7578 7.70508 26.8945 6.26953 26.2402 5.12695L26.0059 4.7168C25.6641 4.69727 25.332 4.6875 24.9902 4.6875C15.9277 4.6875 8.24219 10.6348 5.63477 18.8477ZM45.3125 25C45.3125 21.4062 44.375 18.0273 42.7344 15.0879L40.2344 16.0938C38.7012 16.709 37.9102 18.418 38.4277 19.9805L40.0781 24.9316C40.4199 25.9473 41.25 26.7188 42.2852 26.9727L45.127 27.6855C45.2441 26.8066 45.3027 25.9082 45.3027 25H45.3125ZM0 25C0 18.3696 2.63392 12.0107 7.32233 7.32233C12.0107 2.63392 18.3696 0 25 0C31.6304 0 37.9893 2.63392 42.6777 7.32233C47.3661 12.0107 50 18.3696 50 25C50 31.6304 47.3661 37.9893 42.6777 42.6777C37.9893 47.3661 31.6304 50 25 50C18.3696 50 12.0107 47.3661 7.32233 42.6777C2.63392 37.9893 0 31.6304 0 25Z" fill="#008236"/>
</svg>
