<svg width="50" height="50" viewBox="0 0 50 50" fill="none" xmlns="http://www.w3.org/2000/svg">
<g clip-path="url(#clip0_702_1706)">
<path d="M7.95312 32.8151H11.1135C11.851 32.8151 12.5573 32.5234 13.0781 32.0026V32.0026C13.599 31.4818 13.8906 30.7755 13.8906 30.038V18.9255C13.8906 18.188 13.599 17.4818 13.0781 16.9609V16.9609C12.5573 16.4401 11.851 16.1484 11.1135 16.1484H8.46979" stroke="#016630" stroke-width="3" stroke-linecap="round" stroke-linejoin="round"/>
<path d="M41.5281 16.1484H38.8865C38.149 16.1484 37.4427 16.4401 36.9219 16.9609V16.9609C36.401 17.4818 36.1094 18.188 36.1094 18.9255V30.038C36.1094 30.7755 36.401 31.4818 36.9219 32.0026V32.0026C37.4427 32.5234 38.149 32.8151 38.8865 32.8151H42.0469" stroke="#016630" stroke-width="3" stroke-linecap="round" stroke-linejoin="round"/>
<path d="M36.1505 30.5156H34.3589C33.763 30.5156 33.1734 30.6427 32.6318 30.8906L23.8672 34.8823" stroke="#016630" stroke-width="3" stroke-linecap="round" stroke-linejoin="round"/>
<path d="M22.1781 18.0606C21.1281 17.4502 19.8594 17.2981 18.6885 17.7189L13.8906 19.446" stroke="#016630" stroke-width="3" stroke-linecap="round" stroke-linejoin="round"/>
<path d="M36.4452 17.5761L30.4536 14.9386C29.1702 14.374 27.6869 14.4928 26.5098 15.2553L21.0723 18.7782C19.3432 19.897 19.1452 22.3511 20.6702 23.7345V23.7345C21.6057 24.5824 22.9598 24.7865 24.1036 24.2532L27.3452 22.7407" stroke="#016630" stroke-width="3" stroke-linecap="round" stroke-linejoin="round"/>
<path fill-rule="evenodd" clip-rule="evenodd" d="M25 43.75C35.3553 43.75 43.75 35.3553 43.75 25C43.75 14.6447 35.3553 6.25 25 6.25C14.6447 6.25 6.25 14.6447 6.25 25C6.25 35.3553 14.6447 43.75 25 43.75Z" stroke="#016630" stroke-width="3" stroke-linecap="round" stroke-linejoin="round"/>
<path d="M27.3422 22.7344L28.988 24.2281C30.8068 25.876 30.813 28.7302 29.0047 30.3885L24.8026 34.2344C23.2172 35.6885 20.7839 35.6927 19.1922 34.249L16.3047 31.6302C15.6214 31.0115 14.7505 30.6635 13.8359 30.5885" stroke="#016630" stroke-width="3" stroke-linecap="round" stroke-linejoin="round"/>
</g>
<defs>
<clipPath id="clip0_702_1706">
<rect width="50" height="50" fill="white"/>
</clipPath>
</defs>
</svg>
