<svg width="35" height="35" viewBox="0 0 35 35" fill="none" xmlns="http://www.w3.org/2000/svg">
<path fill-rule="evenodd" clip-rule="evenodd" d="M10.9317 4.375H24.0698C27.6894 4.375 30.625 7.30917 30.625 10.9317V24.0698C30.625 27.6894 27.6908 30.625 24.0683 30.625H10.9317C7.31062 30.625 4.375 27.6908 4.375 24.0683V10.9317C4.375 7.31062 7.30917 4.375 10.9317 4.375V4.375Z" stroke="#016630" stroke-width="2" stroke-linecap="round" stroke-linejoin="round"/>
<path d="M24.7206 9.79167C24.4494 9.79312 24.2292 10.0133 24.2292 10.2846C24.2292 10.5558 24.4508 10.776 24.7221 10.776C24.9933 10.776 25.2135 10.5558 25.2135 10.2846C25.215 10.0119 24.9933 9.79167 24.7206 9.79167" stroke="#016630" stroke-width="2" stroke-linecap="round" stroke-linejoin="round"/>
<path d="M21.2123 13.7877C23.2626 15.8379 23.2626 19.1621 21.2123 21.2123C19.1621 23.2626 15.8379 23.2626 13.7877 21.2123C11.7374 19.1621 11.7374 15.8379 13.7877 13.7877C15.8379 11.7374 19.1621 11.7374 21.2123 13.7877" stroke="#016630" stroke-width="2" stroke-linecap="round" stroke-linejoin="round"/>
</svg>
