<svg width="35" height="35" viewBox="0 0 35 35" fill="none" xmlns="http://www.w3.org/2000/svg">
<path fill-rule="evenodd" clip-rule="evenodd" d="M10.9375 4.375H24.0683C27.6894 4.375 30.625 7.31062 30.625 10.9317V24.0698C30.625 27.6894 27.6894 30.625 24.0683 30.625H10.9317C7.31062 30.625 4.375 27.6894 4.375 24.0683V10.9375C4.375 7.31354 7.31354 4.375 10.9375 4.375V4.375Z" stroke="#016630" stroke-width="2" stroke-linecap="round" stroke-linejoin="round"/>
<path d="M11.8385 16.1875V24.0625" stroke="#016630" stroke-width="2" stroke-linecap="round" stroke-linejoin="round"/>
<path d="M17.0859 24.0625V19.4687C17.0859 17.656 18.5545 16.1875 20.3672 16.1875V16.1875C22.1799 16.1875 23.6484 17.656 23.6484 19.4687V24.0625" stroke="#016630" stroke-width="2" stroke-linecap="round" stroke-linejoin="round"/>
<path d="M11.8371 11.4323C11.6563 11.4323 11.509 11.5796 11.5104 11.7604C11.5104 11.9413 11.6577 12.0885 11.8385 12.0885C12.0194 12.0885 12.1667 11.9413 12.1667 11.7604C12.1667 11.5781 12.0194 11.4323 11.8371 11.4323" stroke="#016630" stroke-width="2" stroke-linecap="round" stroke-linejoin="round"/>
</svg>
