<svg width="183" height="46" viewBox="0 0 183 46" fill="none" xmlns="http://www.w3.org/2000/svg">
<g clip-path="url(#clip0_735_2188)">
<path d="M0.205908 38.8625L1.96209 36.742C2.53323 36.0521 3.56674 35.9306 4.23502 36.5225C5.09368 37.2868 5.99897 37.6788 6.98196 37.6788C8.83916 37.6788 9.83381 36.546 9.83381 34.3824L9.83381 21.4243L2.08253 21.4243L2.08253 21.2362C2.08253 18.6101 4.19228 16.4779 6.79935 16.4779L16.1125 16.4779L16.1125 33.9944C16.1125 39.8776 13.1014 42.786 7.46374 42.786C4.52253 42.786 1.99317 41.8413 0.256418 40.0736C-0.066066 39.7444 -0.0893782 39.2192 0.205908 38.8625Z" fill="black"/>
<path d="M60.9068 30.3139C60.9068 35.9032 57.0952 39.3955 52.3862 39.3955C50.1133 39.3955 48.4154 38.7488 47.2614 37.3613L47.2614 39.1055L41.4645 39.1055L41.4645 21.2676C41.4645 17.8771 44.1881 15.1256 47.5528 15.1256L47.5528 23.1097C48.7378 21.8829 50.3736 21.2989 52.3901 21.2989C57.0991 21.2989 60.9106 24.756 60.9106 30.3139L60.9068 30.3139ZM54.7562 30.3139C54.7562 27.6643 53.1555 26.1788 51.104 26.1788C49.0526 26.1788 47.4518 27.6643 47.4518 30.3139C47.4518 32.9635 49.0526 34.5157 51.104 34.5157C53.1555 34.5157 54.7562 32.9949 54.7562 30.3139Z" fill="black"/>
<path d="M63.1603 35.7229C63.6887 34.5118 65.0408 33.9356 66.288 34.3471C67.5391 34.7626 68.93 34.9939 70.2355 34.9939C72.287 34.9939 72.9591 34.5431 72.9591 33.7984C72.9591 31.4388 62.7096 34.1237 62.7096 27.1077C62.7096 23.8114 65.7207 21.2911 71.168 21.2911C72.726 21.2911 74.3889 21.5027 75.8343 21.9104C77.0387 22.2474 77.6721 23.5801 77.167 24.7324L77.0077 25.097C76.5803 26.0769 75.4807 26.5198 74.4744 26.1827C73.336 25.7986 72.2248 25.6575 71.1991 25.6575C69.1476 25.6575 68.4133 26.2415 68.4133 26.8843C68.4133 29.3066 78.6317 26.6883 78.6317 33.6377C78.6317 36.8674 75.6828 39.3916 70.0451 39.3916C68.0519 39.3916 66.016 39.0506 64.3842 38.5019C63.2457 38.1178 62.6863 36.8282 63.168 35.719L63.1603 35.7229Z" fill="black"/>
<path d="M126.15 20.2328L118.34 38.6195C118.216 38.9134 117.928 39.1055 117.61 39.1055L112.411 39.1055C112.092 39.1055 111.805 38.9134 111.681 38.6195L103.894 20.2328C103.144 18.4572 104.434 16.4857 106.346 16.4857L109.163 16.4857L114.525 29.4673C114.797 30.1218 115.714 30.1258 115.989 29.4712L121.468 16.4857L123.702 16.4857C125.617 16.4857 126.907 18.4611 126.153 20.2367L126.15 20.2328Z" fill="black"/>
<path d="M128.578 16.3838C128.578 14.5416 130.05 13.1188 132.292 13.1188C134.534 13.1188 136.011 14.4436 136.011 16.2858C136.011 18.226 134.538 19.6488 132.292 19.6488C130.047 19.6488 128.578 18.226 128.578 16.3838Z" fill="url(#paint0_linear_735_2188)"/>
<path d="M129.25 21.589L135.338 21.589L135.338 36.0561C135.338 37.7415 133.986 39.1055 132.316 39.1055L129.254 39.1055L129.254 21.589L129.25 21.589Z" fill="black"/>
<path d="M138.789 35.5426L138.82 35.4721C139.286 34.402 140.487 33.869 141.578 34.2609C142.892 34.7313 144.387 34.9978 145.782 34.9978C147.834 34.9978 148.506 34.547 148.506 33.8023C148.506 31.4427 138.256 34.1276 138.256 27.1116C138.256 23.8153 141.267 21.295 146.715 21.295C148.199 21.295 149.78 21.487 151.183 21.8594C152.5 22.2082 153.18 23.6742 152.632 24.9284C152.181 25.9632 151.027 26.5158 149.963 26.167C148.844 25.7986 147.756 25.6614 146.75 25.6614C144.698 25.6614 143.964 26.2454 143.964 26.8882C143.964 29.3105 154.182 26.6922 154.182 33.6416C154.182 36.8713 151.233 39.3955 145.596 39.3955C143.68 39.3955 141.722 39.082 140.121 38.5685C138.878 38.1687 138.272 36.7498 138.792 35.5465L138.789 35.5426Z" fill="black"/>
<path d="M173.178 21.589L169.075 21.589L169.075 23.1097C167.89 21.8829 166.254 21.2989 164.238 21.2989C159.529 21.2989 155.717 24.756 155.717 30.3139C155.717 35.8718 159.529 39.3955 164.238 39.3955C166.511 39.3955 168.208 38.7488 169.362 37.3613L169.362 39.1055L175.159 39.1055L175.159 23.5919C175.159 22.4865 174.27 21.5929 173.178 21.5929L173.178 21.589ZM164.603 36.9301L162.792 32.9204L169.852 26.8098L161.794 31.5015L158.647 28.4482L169.852 26.8098L164.603 36.9301Z" fill="black"/>
<path d="M99.2396 38.4196L88.7181 28.2875L88.7181 38.8272C88.7181 39.1055 88.4927 39.3328 88.2169 39.3328L85.4427 39.3328C84.9415 39.3328 84.5336 38.7449 84.5336 38.0158L84.5336 21.0324C84.5336 20.1779 85.1902 19.6645 85.6836 20.1309L96.0614 29.9964L96.0614 19.8134C96.0614 19.3862 96.4072 19.0373 96.8307 19.0373L98.6879 19.0373C99.5155 19.0373 100.184 20.0094 100.184 21.2048L100.184 37.6827C100.184 38.3882 99.6437 38.8076 99.2357 38.4196L99.2396 38.4196Z" fill="url(#paint1_linear_735_2188)"/>
<path d="M180.529 40.4695C181.894 40.4695 183 39.3534 183 37.9767C183 36.5999 181.894 35.4838 180.529 35.4838C179.164 35.4838 178.058 36.5999 178.058 37.9767C178.058 39.3534 179.164 40.4695 180.529 40.4695Z" fill="url(#paint2_linear_735_2188)"/>
<path d="M133.233 11.8292C142.569 -0.466427 158.981 -3.28851 170.318 4.27624C179.628 10.4888 184.251 22.8589 181.543 34.986" stroke="black" stroke-width="0.5" stroke-miterlimit="10" stroke-linecap="round"/>
<path d="M34.4087 41.7238C34.195 41.4651 34.0201 41.1829 33.8569 40.8928C33.5228 40.3127 33.6588 39.5484 34.1639 39.0153C34.9682 38.1726 36.3397 38.2824 36.9613 39.2936C37.8045 40.6733 38.6554 42.0452 39.549 43.3896C40.2367 44.4243 39.549 45.6355 38.5621 45.9255C37.8317 46.1411 37.0118 45.8667 36.6427 45.2945C36.3863 44.7418 36.0289 44.248 35.7219 43.7188C35.3217 43.029 34.871 42.3705 34.4087 41.7238Z" fill="#020303"/>
<path d="M30.7176 19.3156C25.9075 18.1946 20.2815 20.9657 18.8634 26.9823C17.4336 32.6539 20.9809 37.9453 25.9464 39.1408C31.1683 40.3989 36.398 37.0947 37.8006 31.5368C39.0944 26.4061 36.3397 20.6247 30.7176 19.3156ZM35.9356 31.2546C35.3139 33.0772 34.16 34.5078 32.365 35.6876C29.3616 37.6357 25.1887 37.1379 22.6205 34.3119C20.3903 31.8543 19.7609 28.2209 21.4627 25.0617C23.3238 21.6086 27.4461 20.0172 31.1372 21.2832C34.9371 22.5884 37.4004 26.9548 35.9356 31.2546Z" fill="black"/>
<path d="M23.4287 25.195C24.5321 23.6428 26.2999 22.5375 28.6467 22.4865C29.0158 22.4787 29.381 22.5179 29.7385 22.6276C30.2397 22.7844 30.5117 23.196 30.4378 23.6781C30.3562 24.2072 29.9871 24.513 29.4393 24.4894C29.0546 24.4698 28.6739 24.4424 28.2892 24.4816C25.7016 24.7364 24.0892 26.896 23.9493 28.9852C23.9299 29.2791 23.961 29.5731 24.0037 29.8632C24.0425 30.1258 24.0348 30.3884 23.8716 30.6196C23.6734 30.9018 23.4248 31.0978 23.0673 31.0704C22.6904 31.0429 22.4068 30.847 22.232 30.4981C22.1426 30.3139 22.1154 30.114 22.0999 29.9141C21.9755 28.409 22.3796 26.8059 23.4248 25.195L23.4287 25.195Z" fill="url(#paint3_linear_735_2188)"/>
</g>
<defs>
<linearGradient id="paint0_linear_735_2188" x1="128.578" y1="16.3838" x2="136.011" y2="16.3838" gradientUnits="userSpaceOnUse">
<stop stop-color="#44B65E"/>
<stop offset="1" stop-color="#0ADA50"/>
</linearGradient>
<linearGradient id="paint1_linear_735_2188" x1="84.5336" y1="29.1851" x2="100.188" y2="29.1851" gradientUnits="userSpaceOnUse">
<stop stop-color="#44B65E"/>
<stop offset="1" stop-color="#0ADA50"/>
</linearGradient>
<linearGradient id="paint2_linear_735_2188" x1="178.058" y1="37.9767" x2="183" y2="37.9767" gradientUnits="userSpaceOnUse">
<stop stop-color="#44B65E"/>
<stop offset="1" stop-color="#0ADA50"/>
</linearGradient>
<linearGradient id="paint3_linear_735_2188" x1="22.0804" y1="26.7785" x2="30.4495" y2="26.7785" gradientUnits="userSpaceOnUse">
<stop stop-color="#44B65E"/>
<stop offset="1" stop-color="#0ADA50"/>
</linearGradient>
<clipPath id="clip0_735_2188">
<rect width="183" height="46" fill="white"/>
</clipPath>
</defs>
</svg>
