<svg width="50" height="50" viewBox="0 0 50 50" fill="none" xmlns="http://www.w3.org/2000/svg">
<path d="M12.7625 28.75L6.25 35.4167L11.4583 38.5417L14.5833 43.75L22.7063 35.2188" stroke="#016630" stroke-width="3" stroke-linecap="round" stroke-linejoin="round"/>
<path d="M27.2969 35.2188L35.4198 43.75L38.5448 38.5417L43.7531 35.4167L37.2406 28.75" stroke="#016630" stroke-width="3" stroke-linecap="round" stroke-linejoin="round"/>
<path d="M35.3094 10.5214C41.0045 16.2165 41.0045 25.4501 35.3094 31.1453C29.6142 36.8404 20.3806 36.8404 14.6854 31.1453C8.99028 25.4501 8.99028 16.2165 14.6854 10.5214C20.3806 4.82621 29.6142 4.82621 35.3094 10.5214" stroke="#016630" stroke-width="3" stroke-linecap="round" stroke-linejoin="round"/>
<path fill-rule="evenodd" clip-rule="evenodd" d="M25.0001 26.2198L28.7439 28.1865C29.4731 28.5698 30.3251 27.951 30.1856 27.1385L29.471 22.9698L32.5001 20.0198C33.0897 19.4448 32.7647 18.4427 31.9501 18.324L27.7647 17.7156L25.8939 13.9219C25.5293 13.1823 24.4772 13.1823 24.1126 13.9219L22.2418 17.7156L18.0543 18.326C17.2397 18.4448 16.9147 19.4469 17.5043 20.0219L20.5335 22.9719L19.8189 27.1406C19.6793 27.9531 20.5314 28.5719 21.2606 28.1885L25.0043 26.2219H25.0001V26.2198Z" stroke="#016630" stroke-width="3" stroke-linecap="round" stroke-linejoin="round"/>
</svg>
