<svg width="50" height="50" viewBox="0 0 50 50" fill="none" xmlns="http://www.w3.org/2000/svg">
<path d="M6.0125 12.1374C6.0125 8.83689 9.58541 6.77406 12.4438 8.42432C13.7703 9.19021 14.5875 10.6056 14.5875 12.1374C14.5875 15.4379 11.0146 17.5007 8.15625 15.8505C6.82969 15.0846 6.0125 13.6692 6.0125 12.1374ZM5.4 24.2113C4.63438 25.0688 4.175 26.2096 4.175 27.4499C4.175 28.6902 4.63438 29.831 5.4 30.6885V24.2113ZM16.4556 20.4368C14.1817 22.4504 12.75 25.398 12.75 28.6749C12.75 31.301 13.6687 33.7127 15.2 35.6038V37.2499C15.2 38.6051 14.1052 39.6999 12.75 39.6999H7.85C6.49484 39.6999 5.4 38.6051 5.4 37.2499V35.198C2.50594 33.8199 0.5 30.8722 0.5 27.4499C0.5 22.7107 4.33578 18.8749 9.075 18.8749H11.525C13.3625 18.8749 15.0622 19.4491 16.4556 20.4291V20.4368ZM34.8 37.2499V35.6038C36.3312 33.7127 37.25 31.301 37.25 28.6749C37.25 25.398 35.8183 22.4504 33.5444 20.4291C34.9378 19.4491 36.6375 18.8749 38.475 18.8749H40.925C45.6642 18.8749 49.5 22.7107 49.5 27.4499C49.5 30.8722 47.4941 33.8199 44.6 35.198V37.2499C44.6 38.6051 43.5052 39.6999 42.15 39.6999H37.25C35.8948 39.6999 34.8 38.6051 34.8 37.2499ZM35.4125 12.1374C35.4125 8.83689 38.9854 6.77406 41.8438 8.42432C43.1703 9.19021 43.9875 10.6056 43.9875 12.1374C43.9875 15.4379 40.4146 17.5007 37.5562 15.8505C36.2297 15.0846 35.4125 13.6692 35.4125 12.1374ZM44.6 24.2113V30.6962C45.3656 29.831 45.825 28.6979 45.825 27.4576C45.825 26.2172 45.3656 25.0765 44.6 24.219V24.2113ZM25 7.8499C28.772 7.8499 31.1295 11.9332 29.2435 15.1999C28.3682 16.716 26.7506 17.6499 25 17.6499C21.228 17.6499 18.8705 13.5666 20.7565 10.2999C21.6318 8.78384 23.2494 7.8499 25 7.8499ZM18.875 28.6749C18.875 29.9152 19.3344 31.0483 20.1 31.9135V25.4363C19.3344 26.3015 18.875 27.4346 18.875 28.6749ZM29.9 25.4363V31.9212C30.6656 31.056 31.125 29.9229 31.125 28.6826C31.125 27.4422 30.6656 26.3015 29.9 25.444V25.4363ZM34.8 28.6749C34.8 32.0972 32.7941 35.0449 29.9 36.423V39.6999C29.9 41.0551 28.8052 42.1499 27.45 42.1499H22.55C21.1948 42.1499 20.1 41.0551 20.1 39.6999V36.423C17.2059 35.0449 15.2 32.0972 15.2 28.6749C15.2 23.9357 19.0358 20.0999 23.775 20.0999H26.225C30.9642 20.0999 34.8 23.9357 34.8 28.6749Z" fill="#032E15"/>
</svg>
