<svg width="49" height="46" viewBox="0 0 49 46" fill="none" xmlns="http://www.w3.org/2000/svg">
<path d="M16.8438 5.35938V9.1875H32.1562V5.35938C32.1562 4.93828 31.8117 4.59375 31.3906 4.59375H17.6094C17.1883 4.59375 16.8438 4.93828 16.8438 5.35938ZM12.25 9.1875V5.35938C12.25 2.40215 14.6521 0 17.6094 0H31.3906C34.3479 0 36.75 2.40215 36.75 5.35938V45.9375H12.25V9.1875ZM6.125 9.1875H9.1875V45.9375H6.125C2.74668 45.9375 0 43.1908 0 39.8125V15.3125C0 11.9342 2.74668 9.1875 6.125 9.1875ZM42.875 45.9375H39.8125V9.1875H42.875C46.2533 9.1875 49 11.9342 49 15.3125V39.8125C49 43.1908 46.2533 45.9375 42.875 45.9375Z" fill="#032E15"/>
</svg>
