<svg width="50" height="50" viewBox="0 0 50 50" fill="none" xmlns="http://www.w3.org/2000/svg">
<path d="M0.5 11.3888H49.5C49.5 8.38583 47.0585 5.94434 44.0556 5.94434H5.94444C2.94149 5.94434 0.5 8.38583 0.5 11.3888ZM0.5 14.111V38.611C0.5 41.6139 2.94149 44.0554 5.94444 44.0554H44.0556C47.0585 44.0554 49.5 41.6139 49.5 38.611V14.111H0.5ZM5.94444 37.7008C5.94444 35.1912 7.9776 33.1666 10.4786 33.1666H20.4658C22.9753 33.1666 25 35.1997 25 37.7008C25 38.2027 24.5917 38.611 24.0898 38.611H6.85469C6.35278 38.611 5.94444 38.2027 5.94444 37.7008ZM15.4722 19.5554C19.6634 19.5553 22.2828 24.0922 20.1874 27.7219C19.2148 29.4065 17.4174 30.4443 15.4722 30.4443C11.2811 30.4443 8.66162 25.9073 10.7572 22.2777C11.7297 20.5932 13.5271 19.5554 15.4722 19.5554ZM30.4444 20.9166C30.4444 20.1679 31.0569 19.5554 31.8056 19.5554H42.6944C43.4431 19.5554 44.0556 20.1679 44.0556 20.9166C44.0556 21.6652 43.4431 22.2777 42.6944 22.2777H31.8056C31.0569 22.2777 30.4444 21.6652 30.4444 20.9166ZM30.4444 26.361C30.4444 25.6124 31.0569 24.9999 31.8056 24.9999H42.6944C43.4431 24.9999 44.0556 25.6124 44.0556 26.361C44.0556 27.1096 43.4431 27.7221 42.6944 27.7221H31.8056C31.0569 27.7221 30.4444 27.1096 30.4444 26.361ZM30.4444 31.8054C30.4444 31.0568 31.0569 30.4443 31.8056 30.4443H42.6944C43.4431 30.4443 44.0556 31.0568 44.0556 31.8054C44.0556 32.5541 43.4431 33.1666 42.6944 33.1666H31.8056C31.0569 33.1666 30.4444 32.5541 30.4444 31.8054Z" fill="#032E15"/>
</svg>
