<svg width="37" height="49" viewBox="0 0 37 49" fill="none" xmlns="http://www.w3.org/2000/svg">
<path d="M18.375 0C14.3746 0 10.9676 2.55527 9.71387 6.125H6.125C2.74668 6.125 0 8.87168 0 12.25V42.875C0 46.2533 2.74668 49 6.125 49H30.625C34.0033 49 36.75 46.2533 36.75 42.875V12.25C36.75 8.87168 34.0033 6.125 30.625 6.125H27.0361C25.7824 2.55527 22.3754 0 18.375 0ZM18.375 6.125C20.7325 6.125 22.206 8.67708 21.0272 10.7187C20.4802 11.6662 19.4691 12.2499 18.375 12.25C16.0175 12.2501 14.5441 9.69809 15.7227 7.65637C16.2698 6.70876 17.2808 6.125 18.375 6.125ZM29.1895 26.127L16.9395 38.377C16.0398 39.2766 14.5852 39.2766 13.6951 38.377L7.56055 32.252C6.66094 31.3523 6.66094 29.8977 7.56055 29.0076C8.46016 28.1176 9.91484 28.108 10.8049 29.0076L15.3029 33.5057L25.9355 22.873C26.8352 21.9734 28.2898 21.9734 29.1799 22.873C30.0699 23.7727 30.0795 25.2273 29.1799 26.1174L29.1895 26.127Z" fill="#032E15"/>
</svg>
