<svg width="35" height="35" viewBox="0 0 35 35" fill="none" xmlns="http://www.w3.org/2000/svg">
<path fill-rule="evenodd" clip-rule="evenodd" d="M14.6502 20.2215C12.9439 18.5153 11.6577 16.6048 10.8031 14.6667C10.6222 14.2569 10.7287 13.7771 11.0452 13.4607L12.2395 12.2663C13.2181 11.2878 13.2181 9.9038 12.3635 9.04922L10.6514 7.33859C9.51245 6.19964 7.6662 6.19964 6.52724 7.33859L5.57641 8.28797C4.49578 9.36859 4.04516 10.9276 4.33682 12.4734C5.05724 16.284 7.27099 20.4563 10.8424 24.0278C14.4139 27.5992 18.5862 29.813 22.3968 30.5334C23.9427 30.8251 25.5016 30.3744 26.5822 29.2938L27.5316 28.3444C28.6706 27.2055 28.6706 25.3592 27.5316 24.2203L25.821 22.5096C24.9664 21.6551 23.581 21.6551 22.7279 22.5096L21.411 23.828C21.0945 24.1444 20.6147 24.2509 20.2049 24.0701C18.2668 23.214 16.3564 21.9263 14.6502 20.2215Z" stroke="#008236" stroke-width="3" stroke-linecap="round" stroke-linejoin="round"/>
<path d="M18.8385 7.5375V4.125" stroke="#008236" stroke-width="3" stroke-linecap="round" stroke-linejoin="round"/>
<path d="M24.9219 9.94635L27.3281 7.55469" stroke="#008236" stroke-width="3" stroke-linecap="round" stroke-linejoin="round"/>
<path d="M27.3438 16.0417H30.7417" stroke="#008236" stroke-width="3" stroke-linecap="round" stroke-linejoin="round"/>
</svg>
