<svg width="50" height="50" viewBox="0 0 50 50" fill="none" xmlns="http://www.w3.org/2000/svg">
<path fill-rule="evenodd" clip-rule="evenodd" d="M41.6693 27.1295C41.6693 34.9934 31.9925 40.8352 27.3779 43.1807C25.889 43.942 24.1254 43.9435 22.6352 43.1849C18.0237 40.8416 8.33594 34.9855 8.33594 27.1295V15.7721C8.35126 14.7079 9.15725 13.8219 10.2153 13.7061C14.636 13.3702 18.8742 11.8029 22.4497 9.18164C23.9648 8.05404 26.0403 8.05404 27.5554 9.18164C31.131 11.8029 35.3692 13.3702 39.7898 13.7061C40.8479 13.8218 41.6539 14.7078 41.6693 15.7721V27.1295Z" stroke="#016630" stroke-width="3" stroke-linecap="round" stroke-linejoin="round"/>
<path d="M28.3307 23.9609L24.1663 28.1276L21.6641 25.6276" stroke="#016630" stroke-width="3" stroke-linecap="round" stroke-linejoin="round"/>
</svg>
