<svg width="50" height="50" viewBox="0 0 50 50" fill="none" xmlns="http://www.w3.org/2000/svg">
<path fill-rule="evenodd" clip-rule="evenodd" d="M35.614 25.2573L24.3661 34.2557C23.5368 34.9191 22.3413 34.8529 21.5904 34.1019L15.8917 28.4033C15.1408 27.6523 15.0746 26.4568 15.738 25.6275L24.7363 14.3796C28.851 9.23627 35.0806 6.24219 41.6673 6.24219V6.24219C42.8183 6.24219 43.7515 7.17532 43.7515 8.32639V8.32639C43.7515 14.9131 40.7574 21.1427 35.614 25.2573Z" stroke="#016630" stroke-width="3" stroke-linecap="round" stroke-linejoin="round"/>
<path d="M33.3351 27.0781V36.2111C33.3351 37.0005 32.889 37.7222 32.1829 38.0752L27.1477 40.593C26.6073 40.8632 25.9762 40.8856 25.418 40.6543C24.8598 40.4231 24.4294 39.9611 24.2383 39.3879L22.9141 35.4149" stroke="#016630" stroke-width="3" stroke-linecap="round" stroke-linejoin="round"/>
<path d="M14.5776 27.0851L10.6048 25.7608C10.0316 25.5697 9.56955 25.1393 9.33834 24.5811C9.10713 24.0229 9.12952 23.3919 9.39972 22.8515L11.9174 17.8162C12.2705 17.1101 12.9921 16.6641 13.7815 16.6641H22.9144" stroke="#016630" stroke-width="3" stroke-linecap="round" stroke-linejoin="round"/>
<path fill-rule="evenodd" clip-rule="evenodd" d="M11.974 42.8916L6.24219 43.7527L7.10328 38.0209C7.38261 36.1615 8.84224 34.7019 10.7016 34.4226V34.4226C12.0453 34.2207 13.405 34.6685 14.3658 35.6292C15.3265 36.59 15.7743 37.9497 15.5724 39.2934V39.2934C15.293 41.1527 13.8333 42.6123 11.974 42.8916V42.8916Z" stroke="#016630" stroke-width="3" stroke-linecap="round" stroke-linejoin="round"/>
</svg>
