<svg width="40" height="46" viewBox="0 0 40 46" fill="none" xmlns="http://www.w3.org/2000/svg">
<path d="M16.6667 27.0833V43.75H0C0 34.5452 7.46192 27.0833 16.6667 27.0833ZM16.6667 25C9.76042 25 4.16667 19.4062 4.16667 12.5C4.16667 5.59375 9.76042 0 16.6667 0C23.5729 0 29.1667 5.59375 29.1667 12.5C29.1667 19.4062 23.5729 25 16.6667 25ZM36.3462 39.65L39.4785 42.7823L36.5323 45.7285L33.4 42.5962C32.1594 43.3294 30.7121 43.75 29.1667 43.75C24.5644 43.75 20.8333 40.019 20.8333 35.4167C20.8333 30.8144 24.5644 27.0833 29.1667 27.0833C33.769 27.0833 37.5 30.8144 37.5 35.4167C37.5 36.9621 37.0794 38.4094 36.3462 39.65ZM29.1667 39.5833C31.4679 39.5833 33.3333 37.7179 33.3333 35.4167C33.3333 33.1154 31.4679 31.25 29.1667 31.25C26.8654 31.25 25 33.1154 25 35.4167C25 37.7179 26.8654 39.5833 29.1667 39.5833Z" fill="#F0FDF4"/>
</svg>
