<svg width="50" height="50" viewBox="0 0 50 50" fill="none" xmlns="http://www.w3.org/2000/svg">
<path d="M25 50C31.6304 50 37.9893 47.3661 42.6777 42.6777C47.3661 37.9893 50 31.6304 50 25C50 18.3696 47.3661 12.0107 42.6777 7.32233C37.9893 2.63392 31.6304 0 25 0C18.3696 0 12.0107 2.63392 7.32233 7.32233C2.63392 12.0107 0 18.3696 0 25C0 31.6304 2.63392 37.9893 7.32233 42.6777C12.0107 47.3661 18.3696 50 25 50ZM36.0352 20.4102L23.5352 32.9102C22.6172 33.8281 21.1328 33.8281 20.2246 32.9102L13.9746 26.6602C13.0566 25.7422 13.0566 24.2578 13.9746 23.3496C14.8926 22.4414 16.377 22.4316 17.2852 23.3496L21.875 27.9395L32.7148 17.0898C33.6328 16.1719 35.1172 16.1719 36.0254 17.0898C36.9336 18.0078 36.9434 19.4922 36.0254 20.4004L36.0352 20.4102Z" fill="#F0FDF4"/>
</svg>
