<svg width="42" height="42" viewBox="0 0 42 42" fill="none" xmlns="http://www.w3.org/2000/svg">
<path d="M20.8333 16.6667C25.4356 16.6667 29.1667 12.9357 29.1667 8.33333C29.1667 3.73096 25.4356 0 20.8333 0C16.231 0 12.5 3.73096 12.5 8.33333C12.5 12.9357 16.231 16.6667 20.8333 16.6667ZM7.29167 22.9167C10.1681 22.9167 12.5 20.5848 12.5 17.7083C12.5 14.8319 10.1681 12.5 7.29167 12.5C4.41519 12.5 2.08333 14.8319 2.08333 17.7083C2.08333 20.5848 4.41519 22.9167 7.29167 22.9167ZM39.5833 17.7083C39.5833 20.5848 37.2515 22.9167 34.375 22.9167C31.4985 22.9167 29.1667 20.5848 29.1667 17.7083C29.1667 14.8319 31.4985 12.5 34.375 12.5C37.2515 12.5 39.5833 14.8319 39.5833 17.7083ZM20.8333 18.75C26.5863 18.75 31.25 23.4138 31.25 29.1667V41.6667H10.4167V29.1667C10.4167 23.4138 15.0804 18.75 20.8333 18.75ZM6.25 29.1665C6.25 27.7229 6.45973 26.3283 6.85038 25.0117L6.49717 25.0425C2.84381 25.4383 0 28.5329 0 32.2915V41.6665H6.25V29.1665ZM41.6667 41.6665V32.2915C41.6667 28.4121 38.6373 25.2402 34.8163 25.0117C35.2069 26.3283 35.4167 27.7229 35.4167 29.1665V41.6665H41.6667Z" fill="#F0FDF4"/>
</svg>
