<svg width="1440" height="486" viewBox="0 0 1440 486" fill="none" xmlns="http://www.w3.org/2000/svg">
<g filter="url(#filter0_f_735_1998)">
<path d="M0 320.236H70.9157C71.819 320.236 72.6102 319.631 72.8462 318.759L102.31 209.939C102.885 207.818 105.963 208.04 106.226 210.222L131.73 421.314C131.987 423.442 134.957 423.73 135.618 421.691L168.068 321.619C168.335 320.795 169.103 320.236 169.97 320.236H192.404C193.442 320.236 194.308 319.442 194.397 318.407L219.964 20.3418L230.562 481.805C230.617 484.199 234.068 484.491 234.525 482.141L273.234 282.946C273.649 280.813 276.689 280.778 277.151 282.902L301.8 396.066C302.284 398.291 305.516 398.106 305.744 395.84L326.654 187.517C326.886 185.203 330.214 185.082 330.614 187.372L353.542 318.581C353.709 319.538 354.541 320.236 355.512 320.236H432.905C433.917 320.236 434.769 319.481 434.891 318.477L454.945 153.132C455.225 150.818 458.565 150.773 458.908 153.078L505.702 466.896C506.051 469.237 509.46 469.138 509.672 466.78L529.535 245.585C529.741 243.292 533.021 243.106 533.486 245.36L557.726 362.911C558.182 365.123 561.381 365.001 561.668 362.761L595.29 100.233C595.591 97.8852 599.001 97.9145 599.262 100.268L617.5 265.12C617.731 267.21 620.618 267.573 621.359 265.605L653.296 180.784C654.036 178.819 656.917 179.176 657.155 181.262L672.813 318.463C672.928 319.473 673.783 320.236 674.8 320.236H772.6C773.596 320.236 774.439 320.968 774.58 321.953L788.03 415.966C788.359 418.266 791.686 418.25 791.992 415.946L812.664 260.19C812.938 258.13 815.781 257.802 816.517 259.745L836.75 313.159C837.478 315.079 840.281 314.788 840.597 312.759L871.593 113.905C871.956 111.577 875.344 111.683 875.56 114.03L894.553 320.236L902.945 412.854C903.16 415.224 906.594 415.304 906.918 412.946L945.443 132.856C945.763 130.53 949.136 130.563 949.411 132.894L974.198 342.768C974.42 344.653 976.897 345.197 977.889 343.579L991.613 321.191C991.977 320.598 992.622 320.236 993.318 320.236L1085.14 320.236C1086.06 320.236 1086.85 319.618 1087.08 318.734L1130.94 148.093C1131.48 145.977 1134.54 146.141 1134.85 148.302L1174.63 421.308C1174.93 423.43 1177.91 423.643 1178.52 421.586L1206.4 327.296C1206.98 325.341 1209.77 325.403 1210.26 327.382L1232.84 418.464C1233.39 420.663 1236.6 420.404 1236.78 418.146L1264.8 74.7473C1265 72.3008 1268.58 72.296 1268.78 74.742L1292.79 359.555C1292.98 361.885 1296.33 362.043 1296.75 359.743L1317.34 245.63C1317.75 243.359 1321.04 243.472 1321.29 245.765L1335.53 374.648L1347.54 454.074C1347.87 456.273 1351.01 456.369 1351.47 454.194L1379.81 321.818C1380.01 320.895 1380.83 320.236 1381.77 320.236H1440" stroke="url(#paint0_linear_735_1998)" stroke-opacity="0.8" stroke-width="8" stroke-linecap="round"/>
</g>
<defs>
<filter id="filter0_f_735_1998" x="-24" y="0" width="1488" height="507.761" filterUnits="userSpaceOnUse" color-interpolation-filters="sRGB">
<feFlood flood-opacity="0" result="BackgroundImageFix"/>
<feBlend mode="normal" in="SourceGraphic" in2="BackgroundImageFix" result="shape"/>
<feGaussianBlur stdDeviation="10" result="effect1_foregroundBlur_735_1998"/>
</filter>
<linearGradient id="paint0_linear_735_1998" x1="720" y1="500.342" x2="720" y2="20.3418" gradientUnits="userSpaceOnUse">
<stop stop-color="#4A9A62"/>
<stop offset="1" stop-color="#9BF0B4"/>
</linearGradient>
</defs>
</svg>
