<svg width="28" height="28" viewBox="0 0 28 28" fill="none" xmlns="http://www.w3.org/2000/svg">
<path fill-rule="evenodd" clip-rule="evenodd" d="M15.7024 10.6449L24.4708 1.35156H27.3777L27.3652 1.36528L16.9944 12.3599L26.4894 24.962C26.7306 25.2822 26.7699 25.7113 26.5911 26.0701C26.4237 26.4059 26.092 26.6259 25.7216 26.6528H19.7758C19.4727 26.6308 19.1923 26.4792 19.0079 26.2345L12.3265 17.3666L3.60918 26.6528H0.625L11.0344 15.6515L1.53953 3.04942C1.29829 2.72924 1.25889 2.30016 1.43779 1.94139C1.61667 1.58262 1.98309 1.35589 2.38398 1.35589H8.17651C8.50849 1.35589 8.82119 1.51182 9.02096 1.77696L15.7024 10.6449ZM14.8124 12.9778C14.7824 12.9429 14.7551 12.9065 14.7304 12.8688L7.64931 3.4705H4.50438L20.3795 24.541H23.5245L14.8124 12.9778Z" fill="#016630"/>
</svg>
