<svg width="35" height="35" viewBox="0 0 35 35" fill="none" xmlns="http://www.w3.org/2000/svg">
<path fill-rule="evenodd" clip-rule="evenodd" d="M31.4726 9.29635C31.1386 7.83219 30.1499 6.67719 28.8928 6.28052C26.6193 5.57031 17.4974 5.57031 17.4974 5.57031C17.4974 5.57031 8.3799 5.57031 6.10198 6.28052C4.84927 6.67135 3.86052 7.82635 3.52219 9.29635C2.91406 11.9534 2.91406 17.5024 2.91406 17.5024C2.91406 17.5024 2.91406 23.0514 3.52219 25.7084C3.85615 27.1726 4.8449 28.3276 6.10198 28.7243C8.3799 29.4345 17.4974 29.4345 17.4974 29.4345C17.4974 29.4345 26.6193 29.4345 28.8928 28.7243C30.1455 28.3334 31.1343 27.1784 31.4726 25.7084C32.0807 23.0514 32.0807 17.5024 32.0807 17.5024C32.0807 17.5024 32.0807 11.9534 31.4726 9.29635Z" stroke="#016630" stroke-width="2" stroke-linecap="round" stroke-linejoin="round"/>
<path fill-rule="evenodd" clip-rule="evenodd" d="M14.5859 21.875L22.1634 17.5L14.5859 13.125V21.875Z" stroke="#016630" stroke-width="2" stroke-linecap="round" stroke-linejoin="round"/>
</svg>
